%TF.GenerationSoftware,KiCad,Pcbnew,8.0.4*%
%TF.CreationDate,2024-08-28T21:18:08+02:00*%
%TF.ProjectId,Project1LedTorch,50726f6a-6563-4743-914c-6564546f7263,1*%
%TF.SameCoordinates,Original*%
%TF.FileFunction,Drillmap*%
%TF.FilePolarity,Positive*%
%FSLAX45Y45*%
G04 Gerber Fmt 4.5, Leading zero omitted, Abs format (unit mm)*
G04 Created by KiCad (PCBNEW 8.0.4) date 2024-08-28 21:18:08*
%MOMM*%
%LPD*%
G01*
G04 APERTURE LIST*
%ADD10C,0.050000*%
%ADD11C,0.200000*%
%ADD12C,0.100000*%
%ADD13C,0.120000*%
G04 APERTURE END LIST*
D10*
X17993098Y-10286029D02*
G75*
G02*
X15621000Y-10654018I-1283597J444811D01*
G01*
X12484100Y-9029700D02*
X15621000Y-9029700D01*
X12524082Y-10653683D02*
G75*
G02*
X12484100Y-9029700I-52831J811183D01*
G01*
X18351500Y-9398000D02*
X17995900Y-9398000D01*
X15521502Y-10439400D02*
G75*
G02*
X15212498Y-10439400I-154502J0D01*
G01*
X15212498Y-10439400D02*
G75*
G02*
X15521502Y-10439400I154502J0D01*
G01*
X18351500Y-10287000D02*
X17993098Y-10286029D01*
X15621000Y-9029700D02*
G75*
G02*
X17995555Y-9397595I1091855J-799847D01*
G01*
X15521502Y-9245600D02*
G75*
G02*
X15212498Y-9245600I-154502J0D01*
G01*
X15212498Y-9245600D02*
G75*
G02*
X15521502Y-9245600I154502J0D01*
G01*
X12778988Y-9842500D02*
G75*
G02*
X12544812Y-9842500I-117088J0D01*
G01*
X12544812Y-9842500D02*
G75*
G02*
X12778988Y-9842500I117088J0D01*
G01*
X18389600Y-10248900D02*
G75*
G02*
X18351500Y-10287000I-38100J0D01*
G01*
X18351500Y-9398000D02*
G75*
G02*
X18389600Y-9436100I0J-38100D01*
G01*
X12524082Y-10653683D02*
X15621000Y-10654018D01*
X18389600Y-10248900D02*
X18389600Y-9436100D01*
D11*
D12*
X13091600Y-9426500D02*
X13161600Y-9496500D01*
X13161600Y-9426500D02*
X13091600Y-9496500D01*
X13091600Y-10188500D02*
X13161600Y-10258500D01*
X13161600Y-10188500D02*
X13091600Y-10258500D01*
X12130200Y-9715000D02*
G75*
G02*
X12040200Y-9715000I-45000J0D01*
G01*
X12040200Y-9715000D02*
G75*
G02*
X12130200Y-9715000I45000J0D01*
G01*
X12130200Y-9969000D02*
G75*
G02*
X12040200Y-9969000I-45000J0D01*
G01*
X12040200Y-9969000D02*
G75*
G02*
X12130200Y-9969000I45000J0D01*
G01*
D13*
X13593800Y-9532500D02*
X13593800Y-9652500D01*
X13533800Y-9592500D02*
X13653800Y-9592500D01*
X13593800Y-10032500D02*
X13593800Y-10152500D01*
X13533800Y-10092500D02*
X13653800Y-10092500D01*
X14843800Y-9532500D02*
X14843800Y-9652500D01*
X14783800Y-9592500D02*
X14903800Y-9592500D01*
X14843800Y-10032500D02*
X14843800Y-10152500D01*
X14783800Y-10092500D02*
X14903800Y-10092500D01*
D11*
X11916626Y-11513685D02*
X11916626Y-11313685D01*
X11916626Y-11313685D02*
X11964245Y-11313685D01*
X11964245Y-11313685D02*
X11992817Y-11323209D01*
X11992817Y-11323209D02*
X12011864Y-11342257D01*
X12011864Y-11342257D02*
X12021388Y-11361304D01*
X12021388Y-11361304D02*
X12030912Y-11399399D01*
X12030912Y-11399399D02*
X12030912Y-11427971D01*
X12030912Y-11427971D02*
X12021388Y-11466066D01*
X12021388Y-11466066D02*
X12011864Y-11485114D01*
X12011864Y-11485114D02*
X11992817Y-11504161D01*
X11992817Y-11504161D02*
X11964245Y-11513685D01*
X11964245Y-11513685D02*
X11916626Y-11513685D01*
X12116626Y-11513685D02*
X12116626Y-11380352D01*
X12116626Y-11418447D02*
X12126150Y-11399399D01*
X12126150Y-11399399D02*
X12135674Y-11389876D01*
X12135674Y-11389876D02*
X12154721Y-11380352D01*
X12154721Y-11380352D02*
X12173769Y-11380352D01*
X12240436Y-11513685D02*
X12240436Y-11380352D01*
X12240436Y-11313685D02*
X12230912Y-11323209D01*
X12230912Y-11323209D02*
X12240436Y-11332733D01*
X12240436Y-11332733D02*
X12249959Y-11323209D01*
X12249959Y-11323209D02*
X12240436Y-11313685D01*
X12240436Y-11313685D02*
X12240436Y-11332733D01*
X12364245Y-11513685D02*
X12345198Y-11504161D01*
X12345198Y-11504161D02*
X12335674Y-11485114D01*
X12335674Y-11485114D02*
X12335674Y-11313685D01*
X12469007Y-11513685D02*
X12449959Y-11504161D01*
X12449959Y-11504161D02*
X12440436Y-11485114D01*
X12440436Y-11485114D02*
X12440436Y-11313685D01*
X12697579Y-11513685D02*
X12697579Y-11313685D01*
X12697579Y-11313685D02*
X12764245Y-11456542D01*
X12764245Y-11456542D02*
X12830912Y-11313685D01*
X12830912Y-11313685D02*
X12830912Y-11513685D01*
X13011864Y-11513685D02*
X13011864Y-11408923D01*
X13011864Y-11408923D02*
X13002340Y-11389876D01*
X13002340Y-11389876D02*
X12983293Y-11380352D01*
X12983293Y-11380352D02*
X12945198Y-11380352D01*
X12945198Y-11380352D02*
X12926150Y-11389876D01*
X13011864Y-11504161D02*
X12992817Y-11513685D01*
X12992817Y-11513685D02*
X12945198Y-11513685D01*
X12945198Y-11513685D02*
X12926150Y-11504161D01*
X12926150Y-11504161D02*
X12916626Y-11485114D01*
X12916626Y-11485114D02*
X12916626Y-11466066D01*
X12916626Y-11466066D02*
X12926150Y-11447018D01*
X12926150Y-11447018D02*
X12945198Y-11437495D01*
X12945198Y-11437495D02*
X12992817Y-11437495D01*
X12992817Y-11437495D02*
X13011864Y-11427971D01*
X13107102Y-11380352D02*
X13107102Y-11580352D01*
X13107102Y-11389876D02*
X13126150Y-11380352D01*
X13126150Y-11380352D02*
X13164245Y-11380352D01*
X13164245Y-11380352D02*
X13183293Y-11389876D01*
X13183293Y-11389876D02*
X13192817Y-11399399D01*
X13192817Y-11399399D02*
X13202340Y-11418447D01*
X13202340Y-11418447D02*
X13202340Y-11475590D01*
X13202340Y-11475590D02*
X13192817Y-11494637D01*
X13192817Y-11494637D02*
X13183293Y-11504161D01*
X13183293Y-11504161D02*
X13164245Y-11513685D01*
X13164245Y-11513685D02*
X13126150Y-11513685D01*
X13126150Y-11513685D02*
X13107102Y-11504161D01*
X13288055Y-11494637D02*
X13297579Y-11504161D01*
X13297579Y-11504161D02*
X13288055Y-11513685D01*
X13288055Y-11513685D02*
X13278531Y-11504161D01*
X13278531Y-11504161D02*
X13288055Y-11494637D01*
X13288055Y-11494637D02*
X13288055Y-11513685D01*
X13288055Y-11389876D02*
X13297579Y-11399399D01*
X13297579Y-11399399D02*
X13288055Y-11408923D01*
X13288055Y-11408923D02*
X13278531Y-11399399D01*
X13278531Y-11399399D02*
X13288055Y-11389876D01*
X13288055Y-11389876D02*
X13288055Y-11408923D01*
D12*
X11585849Y-11807201D02*
X11655849Y-11877201D01*
X11655849Y-11807201D02*
X11585849Y-11877201D01*
D11*
X11954721Y-11733685D02*
X11973769Y-11733685D01*
X11973769Y-11733685D02*
X11992817Y-11743209D01*
X11992817Y-11743209D02*
X12002340Y-11752733D01*
X12002340Y-11752733D02*
X12011864Y-11771780D01*
X12011864Y-11771780D02*
X12021388Y-11809876D01*
X12021388Y-11809876D02*
X12021388Y-11857495D01*
X12021388Y-11857495D02*
X12011864Y-11895590D01*
X12011864Y-11895590D02*
X12002340Y-11914637D01*
X12002340Y-11914637D02*
X11992817Y-11924161D01*
X11992817Y-11924161D02*
X11973769Y-11933685D01*
X11973769Y-11933685D02*
X11954721Y-11933685D01*
X11954721Y-11933685D02*
X11935674Y-11924161D01*
X11935674Y-11924161D02*
X11926150Y-11914637D01*
X11926150Y-11914637D02*
X11916626Y-11895590D01*
X11916626Y-11895590D02*
X11907102Y-11857495D01*
X11907102Y-11857495D02*
X11907102Y-11809876D01*
X11907102Y-11809876D02*
X11916626Y-11771780D01*
X11916626Y-11771780D02*
X11926150Y-11752733D01*
X11926150Y-11752733D02*
X11935674Y-11743209D01*
X11935674Y-11743209D02*
X11954721Y-11733685D01*
X12107102Y-11914637D02*
X12116626Y-11924161D01*
X12116626Y-11924161D02*
X12107102Y-11933685D01*
X12107102Y-11933685D02*
X12097579Y-11924161D01*
X12097579Y-11924161D02*
X12107102Y-11914637D01*
X12107102Y-11914637D02*
X12107102Y-11933685D01*
X12183293Y-11733685D02*
X12316626Y-11733685D01*
X12316626Y-11733685D02*
X12230912Y-11933685D01*
X12430912Y-11733685D02*
X12449960Y-11733685D01*
X12449960Y-11733685D02*
X12469007Y-11743209D01*
X12469007Y-11743209D02*
X12478531Y-11752733D01*
X12478531Y-11752733D02*
X12488055Y-11771780D01*
X12488055Y-11771780D02*
X12497579Y-11809876D01*
X12497579Y-11809876D02*
X12497579Y-11857495D01*
X12497579Y-11857495D02*
X12488055Y-11895590D01*
X12488055Y-11895590D02*
X12478531Y-11914637D01*
X12478531Y-11914637D02*
X12469007Y-11924161D01*
X12469007Y-11924161D02*
X12449960Y-11933685D01*
X12449960Y-11933685D02*
X12430912Y-11933685D01*
X12430912Y-11933685D02*
X12411864Y-11924161D01*
X12411864Y-11924161D02*
X12402340Y-11914637D01*
X12402340Y-11914637D02*
X12392817Y-11895590D01*
X12392817Y-11895590D02*
X12383293Y-11857495D01*
X12383293Y-11857495D02*
X12383293Y-11809876D01*
X12383293Y-11809876D02*
X12392817Y-11771780D01*
X12392817Y-11771780D02*
X12402340Y-11752733D01*
X12402340Y-11752733D02*
X12411864Y-11743209D01*
X12411864Y-11743209D02*
X12430912Y-11733685D01*
X12621388Y-11733685D02*
X12640436Y-11733685D01*
X12640436Y-11733685D02*
X12659483Y-11743209D01*
X12659483Y-11743209D02*
X12669007Y-11752733D01*
X12669007Y-11752733D02*
X12678531Y-11771780D01*
X12678531Y-11771780D02*
X12688055Y-11809876D01*
X12688055Y-11809876D02*
X12688055Y-11857495D01*
X12688055Y-11857495D02*
X12678531Y-11895590D01*
X12678531Y-11895590D02*
X12669007Y-11914637D01*
X12669007Y-11914637D02*
X12659483Y-11924161D01*
X12659483Y-11924161D02*
X12640436Y-11933685D01*
X12640436Y-11933685D02*
X12621388Y-11933685D01*
X12621388Y-11933685D02*
X12602340Y-11924161D01*
X12602340Y-11924161D02*
X12592817Y-11914637D01*
X12592817Y-11914637D02*
X12583293Y-11895590D01*
X12583293Y-11895590D02*
X12573769Y-11857495D01*
X12573769Y-11857495D02*
X12573769Y-11809876D01*
X12573769Y-11809876D02*
X12583293Y-11771780D01*
X12583293Y-11771780D02*
X12592817Y-11752733D01*
X12592817Y-11752733D02*
X12602340Y-11743209D01*
X12602340Y-11743209D02*
X12621388Y-11733685D01*
X12773769Y-11933685D02*
X12773769Y-11800352D01*
X12773769Y-11819399D02*
X12783293Y-11809876D01*
X12783293Y-11809876D02*
X12802340Y-11800352D01*
X12802340Y-11800352D02*
X12830912Y-11800352D01*
X12830912Y-11800352D02*
X12849960Y-11809876D01*
X12849960Y-11809876D02*
X12859483Y-11828923D01*
X12859483Y-11828923D02*
X12859483Y-11933685D01*
X12859483Y-11828923D02*
X12869007Y-11809876D01*
X12869007Y-11809876D02*
X12888055Y-11800352D01*
X12888055Y-11800352D02*
X12916626Y-11800352D01*
X12916626Y-11800352D02*
X12935674Y-11809876D01*
X12935674Y-11809876D02*
X12945198Y-11828923D01*
X12945198Y-11828923D02*
X12945198Y-11933685D01*
X13040436Y-11933685D02*
X13040436Y-11800352D01*
X13040436Y-11819399D02*
X13049960Y-11809876D01*
X13049960Y-11809876D02*
X13069007Y-11800352D01*
X13069007Y-11800352D02*
X13097579Y-11800352D01*
X13097579Y-11800352D02*
X13116626Y-11809876D01*
X13116626Y-11809876D02*
X13126150Y-11828923D01*
X13126150Y-11828923D02*
X13126150Y-11933685D01*
X13126150Y-11828923D02*
X13135674Y-11809876D01*
X13135674Y-11809876D02*
X13154721Y-11800352D01*
X13154721Y-11800352D02*
X13183293Y-11800352D01*
X13183293Y-11800352D02*
X13202341Y-11809876D01*
X13202341Y-11809876D02*
X13211864Y-11828923D01*
X13211864Y-11828923D02*
X13211864Y-11933685D01*
X13602341Y-11724161D02*
X13430912Y-11981304D01*
X13859483Y-11733685D02*
X13878531Y-11733685D01*
X13878531Y-11733685D02*
X13897579Y-11743209D01*
X13897579Y-11743209D02*
X13907103Y-11752733D01*
X13907103Y-11752733D02*
X13916626Y-11771780D01*
X13916626Y-11771780D02*
X13926150Y-11809876D01*
X13926150Y-11809876D02*
X13926150Y-11857495D01*
X13926150Y-11857495D02*
X13916626Y-11895590D01*
X13916626Y-11895590D02*
X13907103Y-11914637D01*
X13907103Y-11914637D02*
X13897579Y-11924161D01*
X13897579Y-11924161D02*
X13878531Y-11933685D01*
X13878531Y-11933685D02*
X13859483Y-11933685D01*
X13859483Y-11933685D02*
X13840436Y-11924161D01*
X13840436Y-11924161D02*
X13830912Y-11914637D01*
X13830912Y-11914637D02*
X13821388Y-11895590D01*
X13821388Y-11895590D02*
X13811864Y-11857495D01*
X13811864Y-11857495D02*
X13811864Y-11809876D01*
X13811864Y-11809876D02*
X13821388Y-11771780D01*
X13821388Y-11771780D02*
X13830912Y-11752733D01*
X13830912Y-11752733D02*
X13840436Y-11743209D01*
X13840436Y-11743209D02*
X13859483Y-11733685D01*
X14011864Y-11914637D02*
X14021388Y-11924161D01*
X14021388Y-11924161D02*
X14011864Y-11933685D01*
X14011864Y-11933685D02*
X14002341Y-11924161D01*
X14002341Y-11924161D02*
X14011864Y-11914637D01*
X14011864Y-11914637D02*
X14011864Y-11933685D01*
X14145198Y-11733685D02*
X14164245Y-11733685D01*
X14164245Y-11733685D02*
X14183293Y-11743209D01*
X14183293Y-11743209D02*
X14192817Y-11752733D01*
X14192817Y-11752733D02*
X14202341Y-11771780D01*
X14202341Y-11771780D02*
X14211864Y-11809876D01*
X14211864Y-11809876D02*
X14211864Y-11857495D01*
X14211864Y-11857495D02*
X14202341Y-11895590D01*
X14202341Y-11895590D02*
X14192817Y-11914637D01*
X14192817Y-11914637D02*
X14183293Y-11924161D01*
X14183293Y-11924161D02*
X14164245Y-11933685D01*
X14164245Y-11933685D02*
X14145198Y-11933685D01*
X14145198Y-11933685D02*
X14126150Y-11924161D01*
X14126150Y-11924161D02*
X14116626Y-11914637D01*
X14116626Y-11914637D02*
X14107103Y-11895590D01*
X14107103Y-11895590D02*
X14097579Y-11857495D01*
X14097579Y-11857495D02*
X14097579Y-11809876D01*
X14097579Y-11809876D02*
X14107103Y-11771780D01*
X14107103Y-11771780D02*
X14116626Y-11752733D01*
X14116626Y-11752733D02*
X14126150Y-11743209D01*
X14126150Y-11743209D02*
X14145198Y-11733685D01*
X14288055Y-11752733D02*
X14297579Y-11743209D01*
X14297579Y-11743209D02*
X14316626Y-11733685D01*
X14316626Y-11733685D02*
X14364245Y-11733685D01*
X14364245Y-11733685D02*
X14383293Y-11743209D01*
X14383293Y-11743209D02*
X14392817Y-11752733D01*
X14392817Y-11752733D02*
X14402341Y-11771780D01*
X14402341Y-11771780D02*
X14402341Y-11790828D01*
X14402341Y-11790828D02*
X14392817Y-11819399D01*
X14392817Y-11819399D02*
X14278531Y-11933685D01*
X14278531Y-11933685D02*
X14402341Y-11933685D01*
X14469007Y-11733685D02*
X14602341Y-11733685D01*
X14602341Y-11733685D02*
X14516626Y-11933685D01*
X14764245Y-11733685D02*
X14726150Y-11733685D01*
X14726150Y-11733685D02*
X14707103Y-11743209D01*
X14707103Y-11743209D02*
X14697579Y-11752733D01*
X14697579Y-11752733D02*
X14678531Y-11781304D01*
X14678531Y-11781304D02*
X14669007Y-11819399D01*
X14669007Y-11819399D02*
X14669007Y-11895590D01*
X14669007Y-11895590D02*
X14678531Y-11914637D01*
X14678531Y-11914637D02*
X14688055Y-11924161D01*
X14688055Y-11924161D02*
X14707103Y-11933685D01*
X14707103Y-11933685D02*
X14745198Y-11933685D01*
X14745198Y-11933685D02*
X14764245Y-11924161D01*
X14764245Y-11924161D02*
X14773769Y-11914637D01*
X14773769Y-11914637D02*
X14783293Y-11895590D01*
X14783293Y-11895590D02*
X14783293Y-11847971D01*
X14783293Y-11847971D02*
X14773769Y-11828923D01*
X14773769Y-11828923D02*
X14764245Y-11819399D01*
X14764245Y-11819399D02*
X14745198Y-11809876D01*
X14745198Y-11809876D02*
X14707103Y-11809876D01*
X14707103Y-11809876D02*
X14688055Y-11819399D01*
X14688055Y-11819399D02*
X14678531Y-11828923D01*
X14678531Y-11828923D02*
X14669007Y-11847971D01*
X14859484Y-11733685D02*
X14859484Y-11771780D01*
X14935674Y-11733685D02*
X14935674Y-11771780D01*
X15230912Y-12009876D02*
X15221388Y-12000352D01*
X15221388Y-12000352D02*
X15202341Y-11971780D01*
X15202341Y-11971780D02*
X15192817Y-11952733D01*
X15192817Y-11952733D02*
X15183293Y-11924161D01*
X15183293Y-11924161D02*
X15173769Y-11876542D01*
X15173769Y-11876542D02*
X15173769Y-11838447D01*
X15173769Y-11838447D02*
X15183293Y-11790828D01*
X15183293Y-11790828D02*
X15192817Y-11762257D01*
X15192817Y-11762257D02*
X15202341Y-11743209D01*
X15202341Y-11743209D02*
X15221388Y-11714637D01*
X15221388Y-11714637D02*
X15230912Y-11705114D01*
X15297579Y-11752733D02*
X15307103Y-11743209D01*
X15307103Y-11743209D02*
X15326150Y-11733685D01*
X15326150Y-11733685D02*
X15373769Y-11733685D01*
X15373769Y-11733685D02*
X15392817Y-11743209D01*
X15392817Y-11743209D02*
X15402341Y-11752733D01*
X15402341Y-11752733D02*
X15411865Y-11771780D01*
X15411865Y-11771780D02*
X15411865Y-11790828D01*
X15411865Y-11790828D02*
X15402341Y-11819399D01*
X15402341Y-11819399D02*
X15288055Y-11933685D01*
X15288055Y-11933685D02*
X15411865Y-11933685D01*
X15649960Y-11933685D02*
X15649960Y-11733685D01*
X15735674Y-11933685D02*
X15735674Y-11828923D01*
X15735674Y-11828923D02*
X15726150Y-11809876D01*
X15726150Y-11809876D02*
X15707103Y-11800352D01*
X15707103Y-11800352D02*
X15678531Y-11800352D01*
X15678531Y-11800352D02*
X15659484Y-11809876D01*
X15659484Y-11809876D02*
X15649960Y-11819399D01*
X15859484Y-11933685D02*
X15840436Y-11924161D01*
X15840436Y-11924161D02*
X15830912Y-11914637D01*
X15830912Y-11914637D02*
X15821388Y-11895590D01*
X15821388Y-11895590D02*
X15821388Y-11838447D01*
X15821388Y-11838447D02*
X15830912Y-11819399D01*
X15830912Y-11819399D02*
X15840436Y-11809876D01*
X15840436Y-11809876D02*
X15859484Y-11800352D01*
X15859484Y-11800352D02*
X15888055Y-11800352D01*
X15888055Y-11800352D02*
X15907103Y-11809876D01*
X15907103Y-11809876D02*
X15916627Y-11819399D01*
X15916627Y-11819399D02*
X15926150Y-11838447D01*
X15926150Y-11838447D02*
X15926150Y-11895590D01*
X15926150Y-11895590D02*
X15916627Y-11914637D01*
X15916627Y-11914637D02*
X15907103Y-11924161D01*
X15907103Y-11924161D02*
X15888055Y-11933685D01*
X15888055Y-11933685D02*
X15859484Y-11933685D01*
X16040436Y-11933685D02*
X16021388Y-11924161D01*
X16021388Y-11924161D02*
X16011865Y-11905114D01*
X16011865Y-11905114D02*
X16011865Y-11733685D01*
X16192817Y-11924161D02*
X16173769Y-11933685D01*
X16173769Y-11933685D02*
X16135674Y-11933685D01*
X16135674Y-11933685D02*
X16116627Y-11924161D01*
X16116627Y-11924161D02*
X16107103Y-11905114D01*
X16107103Y-11905114D02*
X16107103Y-11828923D01*
X16107103Y-11828923D02*
X16116627Y-11809876D01*
X16116627Y-11809876D02*
X16135674Y-11800352D01*
X16135674Y-11800352D02*
X16173769Y-11800352D01*
X16173769Y-11800352D02*
X16192817Y-11809876D01*
X16192817Y-11809876D02*
X16202341Y-11828923D01*
X16202341Y-11828923D02*
X16202341Y-11847971D01*
X16202341Y-11847971D02*
X16107103Y-11867018D01*
X16278531Y-11924161D02*
X16297579Y-11933685D01*
X16297579Y-11933685D02*
X16335674Y-11933685D01*
X16335674Y-11933685D02*
X16354722Y-11924161D01*
X16354722Y-11924161D02*
X16364246Y-11905114D01*
X16364246Y-11905114D02*
X16364246Y-11895590D01*
X16364246Y-11895590D02*
X16354722Y-11876542D01*
X16354722Y-11876542D02*
X16335674Y-11867018D01*
X16335674Y-11867018D02*
X16307103Y-11867018D01*
X16307103Y-11867018D02*
X16288055Y-11857495D01*
X16288055Y-11857495D02*
X16278531Y-11838447D01*
X16278531Y-11838447D02*
X16278531Y-11828923D01*
X16278531Y-11828923D02*
X16288055Y-11809876D01*
X16288055Y-11809876D02*
X16307103Y-11800352D01*
X16307103Y-11800352D02*
X16335674Y-11800352D01*
X16335674Y-11800352D02*
X16354722Y-11809876D01*
X16430912Y-12009876D02*
X16440436Y-12000352D01*
X16440436Y-12000352D02*
X16459484Y-11971780D01*
X16459484Y-11971780D02*
X16469008Y-11952733D01*
X16469008Y-11952733D02*
X16478531Y-11924161D01*
X16478531Y-11924161D02*
X16488055Y-11876542D01*
X16488055Y-11876542D02*
X16488055Y-11838447D01*
X16488055Y-11838447D02*
X16478531Y-11790828D01*
X16478531Y-11790828D02*
X16469008Y-11762257D01*
X16469008Y-11762257D02*
X16459484Y-11743209D01*
X16459484Y-11743209D02*
X16440436Y-11714637D01*
X16440436Y-11714637D02*
X16430912Y-11705114D01*
D12*
X11655849Y-12106201D02*
G75*
G02*
X11565849Y-12106201I-45000J0D01*
G01*
X11565849Y-12106201D02*
G75*
G02*
X11655849Y-12106201I45000J0D01*
G01*
D11*
X11954721Y-11997685D02*
X11973769Y-11997685D01*
X11973769Y-11997685D02*
X11992817Y-12007209D01*
X11992817Y-12007209D02*
X12002340Y-12016733D01*
X12002340Y-12016733D02*
X12011864Y-12035780D01*
X12011864Y-12035780D02*
X12021388Y-12073876D01*
X12021388Y-12073876D02*
X12021388Y-12121495D01*
X12021388Y-12121495D02*
X12011864Y-12159590D01*
X12011864Y-12159590D02*
X12002340Y-12178637D01*
X12002340Y-12178637D02*
X11992817Y-12188161D01*
X11992817Y-12188161D02*
X11973769Y-12197685D01*
X11973769Y-12197685D02*
X11954721Y-12197685D01*
X11954721Y-12197685D02*
X11935674Y-12188161D01*
X11935674Y-12188161D02*
X11926150Y-12178637D01*
X11926150Y-12178637D02*
X11916626Y-12159590D01*
X11916626Y-12159590D02*
X11907102Y-12121495D01*
X11907102Y-12121495D02*
X11907102Y-12073876D01*
X11907102Y-12073876D02*
X11916626Y-12035780D01*
X11916626Y-12035780D02*
X11926150Y-12016733D01*
X11926150Y-12016733D02*
X11935674Y-12007209D01*
X11935674Y-12007209D02*
X11954721Y-11997685D01*
X12107102Y-12178637D02*
X12116626Y-12188161D01*
X12116626Y-12188161D02*
X12107102Y-12197685D01*
X12107102Y-12197685D02*
X12097579Y-12188161D01*
X12097579Y-12188161D02*
X12107102Y-12178637D01*
X12107102Y-12178637D02*
X12107102Y-12197685D01*
X12211864Y-12197685D02*
X12249959Y-12197685D01*
X12249959Y-12197685D02*
X12269007Y-12188161D01*
X12269007Y-12188161D02*
X12278531Y-12178637D01*
X12278531Y-12178637D02*
X12297579Y-12150066D01*
X12297579Y-12150066D02*
X12307102Y-12111971D01*
X12307102Y-12111971D02*
X12307102Y-12035780D01*
X12307102Y-12035780D02*
X12297579Y-12016733D01*
X12297579Y-12016733D02*
X12288055Y-12007209D01*
X12288055Y-12007209D02*
X12269007Y-11997685D01*
X12269007Y-11997685D02*
X12230912Y-11997685D01*
X12230912Y-11997685D02*
X12211864Y-12007209D01*
X12211864Y-12007209D02*
X12202340Y-12016733D01*
X12202340Y-12016733D02*
X12192817Y-12035780D01*
X12192817Y-12035780D02*
X12192817Y-12083399D01*
X12192817Y-12083399D02*
X12202340Y-12102447D01*
X12202340Y-12102447D02*
X12211864Y-12111971D01*
X12211864Y-12111971D02*
X12230912Y-12121495D01*
X12230912Y-12121495D02*
X12269007Y-12121495D01*
X12269007Y-12121495D02*
X12288055Y-12111971D01*
X12288055Y-12111971D02*
X12297579Y-12102447D01*
X12297579Y-12102447D02*
X12307102Y-12083399D01*
X12430912Y-11997685D02*
X12449960Y-11997685D01*
X12449960Y-11997685D02*
X12469007Y-12007209D01*
X12469007Y-12007209D02*
X12478531Y-12016733D01*
X12478531Y-12016733D02*
X12488055Y-12035780D01*
X12488055Y-12035780D02*
X12497579Y-12073876D01*
X12497579Y-12073876D02*
X12497579Y-12121495D01*
X12497579Y-12121495D02*
X12488055Y-12159590D01*
X12488055Y-12159590D02*
X12478531Y-12178637D01*
X12478531Y-12178637D02*
X12469007Y-12188161D01*
X12469007Y-12188161D02*
X12449960Y-12197685D01*
X12449960Y-12197685D02*
X12430912Y-12197685D01*
X12430912Y-12197685D02*
X12411864Y-12188161D01*
X12411864Y-12188161D02*
X12402340Y-12178637D01*
X12402340Y-12178637D02*
X12392817Y-12159590D01*
X12392817Y-12159590D02*
X12383293Y-12121495D01*
X12383293Y-12121495D02*
X12383293Y-12073876D01*
X12383293Y-12073876D02*
X12392817Y-12035780D01*
X12392817Y-12035780D02*
X12402340Y-12016733D01*
X12402340Y-12016733D02*
X12411864Y-12007209D01*
X12411864Y-12007209D02*
X12430912Y-11997685D01*
X12621388Y-11997685D02*
X12640436Y-11997685D01*
X12640436Y-11997685D02*
X12659483Y-12007209D01*
X12659483Y-12007209D02*
X12669007Y-12016733D01*
X12669007Y-12016733D02*
X12678531Y-12035780D01*
X12678531Y-12035780D02*
X12688055Y-12073876D01*
X12688055Y-12073876D02*
X12688055Y-12121495D01*
X12688055Y-12121495D02*
X12678531Y-12159590D01*
X12678531Y-12159590D02*
X12669007Y-12178637D01*
X12669007Y-12178637D02*
X12659483Y-12188161D01*
X12659483Y-12188161D02*
X12640436Y-12197685D01*
X12640436Y-12197685D02*
X12621388Y-12197685D01*
X12621388Y-12197685D02*
X12602340Y-12188161D01*
X12602340Y-12188161D02*
X12592817Y-12178637D01*
X12592817Y-12178637D02*
X12583293Y-12159590D01*
X12583293Y-12159590D02*
X12573769Y-12121495D01*
X12573769Y-12121495D02*
X12573769Y-12073876D01*
X12573769Y-12073876D02*
X12583293Y-12035780D01*
X12583293Y-12035780D02*
X12592817Y-12016733D01*
X12592817Y-12016733D02*
X12602340Y-12007209D01*
X12602340Y-12007209D02*
X12621388Y-11997685D01*
X12773769Y-12197685D02*
X12773769Y-12064352D01*
X12773769Y-12083399D02*
X12783293Y-12073876D01*
X12783293Y-12073876D02*
X12802340Y-12064352D01*
X12802340Y-12064352D02*
X12830912Y-12064352D01*
X12830912Y-12064352D02*
X12849960Y-12073876D01*
X12849960Y-12073876D02*
X12859483Y-12092923D01*
X12859483Y-12092923D02*
X12859483Y-12197685D01*
X12859483Y-12092923D02*
X12869007Y-12073876D01*
X12869007Y-12073876D02*
X12888055Y-12064352D01*
X12888055Y-12064352D02*
X12916626Y-12064352D01*
X12916626Y-12064352D02*
X12935674Y-12073876D01*
X12935674Y-12073876D02*
X12945198Y-12092923D01*
X12945198Y-12092923D02*
X12945198Y-12197685D01*
X13040436Y-12197685D02*
X13040436Y-12064352D01*
X13040436Y-12083399D02*
X13049960Y-12073876D01*
X13049960Y-12073876D02*
X13069007Y-12064352D01*
X13069007Y-12064352D02*
X13097579Y-12064352D01*
X13097579Y-12064352D02*
X13116626Y-12073876D01*
X13116626Y-12073876D02*
X13126150Y-12092923D01*
X13126150Y-12092923D02*
X13126150Y-12197685D01*
X13126150Y-12092923D02*
X13135674Y-12073876D01*
X13135674Y-12073876D02*
X13154721Y-12064352D01*
X13154721Y-12064352D02*
X13183293Y-12064352D01*
X13183293Y-12064352D02*
X13202341Y-12073876D01*
X13202341Y-12073876D02*
X13211864Y-12092923D01*
X13211864Y-12092923D02*
X13211864Y-12197685D01*
X13602341Y-11988161D02*
X13430912Y-12245304D01*
X13859483Y-11997685D02*
X13878531Y-11997685D01*
X13878531Y-11997685D02*
X13897579Y-12007209D01*
X13897579Y-12007209D02*
X13907103Y-12016733D01*
X13907103Y-12016733D02*
X13916626Y-12035780D01*
X13916626Y-12035780D02*
X13926150Y-12073876D01*
X13926150Y-12073876D02*
X13926150Y-12121495D01*
X13926150Y-12121495D02*
X13916626Y-12159590D01*
X13916626Y-12159590D02*
X13907103Y-12178637D01*
X13907103Y-12178637D02*
X13897579Y-12188161D01*
X13897579Y-12188161D02*
X13878531Y-12197685D01*
X13878531Y-12197685D02*
X13859483Y-12197685D01*
X13859483Y-12197685D02*
X13840436Y-12188161D01*
X13840436Y-12188161D02*
X13830912Y-12178637D01*
X13830912Y-12178637D02*
X13821388Y-12159590D01*
X13821388Y-12159590D02*
X13811864Y-12121495D01*
X13811864Y-12121495D02*
X13811864Y-12073876D01*
X13811864Y-12073876D02*
X13821388Y-12035780D01*
X13821388Y-12035780D02*
X13830912Y-12016733D01*
X13830912Y-12016733D02*
X13840436Y-12007209D01*
X13840436Y-12007209D02*
X13859483Y-11997685D01*
X14011864Y-12178637D02*
X14021388Y-12188161D01*
X14021388Y-12188161D02*
X14011864Y-12197685D01*
X14011864Y-12197685D02*
X14002341Y-12188161D01*
X14002341Y-12188161D02*
X14011864Y-12178637D01*
X14011864Y-12178637D02*
X14011864Y-12197685D01*
X14145198Y-11997685D02*
X14164245Y-11997685D01*
X14164245Y-11997685D02*
X14183293Y-12007209D01*
X14183293Y-12007209D02*
X14192817Y-12016733D01*
X14192817Y-12016733D02*
X14202341Y-12035780D01*
X14202341Y-12035780D02*
X14211864Y-12073876D01*
X14211864Y-12073876D02*
X14211864Y-12121495D01*
X14211864Y-12121495D02*
X14202341Y-12159590D01*
X14202341Y-12159590D02*
X14192817Y-12178637D01*
X14192817Y-12178637D02*
X14183293Y-12188161D01*
X14183293Y-12188161D02*
X14164245Y-12197685D01*
X14164245Y-12197685D02*
X14145198Y-12197685D01*
X14145198Y-12197685D02*
X14126150Y-12188161D01*
X14126150Y-12188161D02*
X14116626Y-12178637D01*
X14116626Y-12178637D02*
X14107103Y-12159590D01*
X14107103Y-12159590D02*
X14097579Y-12121495D01*
X14097579Y-12121495D02*
X14097579Y-12073876D01*
X14097579Y-12073876D02*
X14107103Y-12035780D01*
X14107103Y-12035780D02*
X14116626Y-12016733D01*
X14116626Y-12016733D02*
X14126150Y-12007209D01*
X14126150Y-12007209D02*
X14145198Y-11997685D01*
X14278531Y-11997685D02*
X14402341Y-11997685D01*
X14402341Y-11997685D02*
X14335674Y-12073876D01*
X14335674Y-12073876D02*
X14364245Y-12073876D01*
X14364245Y-12073876D02*
X14383293Y-12083399D01*
X14383293Y-12083399D02*
X14392817Y-12092923D01*
X14392817Y-12092923D02*
X14402341Y-12111971D01*
X14402341Y-12111971D02*
X14402341Y-12159590D01*
X14402341Y-12159590D02*
X14392817Y-12178637D01*
X14392817Y-12178637D02*
X14383293Y-12188161D01*
X14383293Y-12188161D02*
X14364245Y-12197685D01*
X14364245Y-12197685D02*
X14307103Y-12197685D01*
X14307103Y-12197685D02*
X14288055Y-12188161D01*
X14288055Y-12188161D02*
X14278531Y-12178637D01*
X14583293Y-11997685D02*
X14488055Y-11997685D01*
X14488055Y-11997685D02*
X14478531Y-12092923D01*
X14478531Y-12092923D02*
X14488055Y-12083399D01*
X14488055Y-12083399D02*
X14507103Y-12073876D01*
X14507103Y-12073876D02*
X14554722Y-12073876D01*
X14554722Y-12073876D02*
X14573769Y-12083399D01*
X14573769Y-12083399D02*
X14583293Y-12092923D01*
X14583293Y-12092923D02*
X14592817Y-12111971D01*
X14592817Y-12111971D02*
X14592817Y-12159590D01*
X14592817Y-12159590D02*
X14583293Y-12178637D01*
X14583293Y-12178637D02*
X14573769Y-12188161D01*
X14573769Y-12188161D02*
X14554722Y-12197685D01*
X14554722Y-12197685D02*
X14507103Y-12197685D01*
X14507103Y-12197685D02*
X14488055Y-12188161D01*
X14488055Y-12188161D02*
X14478531Y-12178637D01*
X14764245Y-12064352D02*
X14764245Y-12197685D01*
X14716626Y-11988161D02*
X14669007Y-12131018D01*
X14669007Y-12131018D02*
X14792817Y-12131018D01*
X14859484Y-11997685D02*
X14859484Y-12035780D01*
X14935674Y-11997685D02*
X14935674Y-12035780D01*
X15230912Y-12273876D02*
X15221388Y-12264352D01*
X15221388Y-12264352D02*
X15202341Y-12235780D01*
X15202341Y-12235780D02*
X15192817Y-12216733D01*
X15192817Y-12216733D02*
X15183293Y-12188161D01*
X15183293Y-12188161D02*
X15173769Y-12140542D01*
X15173769Y-12140542D02*
X15173769Y-12102447D01*
X15173769Y-12102447D02*
X15183293Y-12054828D01*
X15183293Y-12054828D02*
X15192817Y-12026257D01*
X15192817Y-12026257D02*
X15202341Y-12007209D01*
X15202341Y-12007209D02*
X15221388Y-11978637D01*
X15221388Y-11978637D02*
X15230912Y-11969114D01*
X15297579Y-12016733D02*
X15307103Y-12007209D01*
X15307103Y-12007209D02*
X15326150Y-11997685D01*
X15326150Y-11997685D02*
X15373769Y-11997685D01*
X15373769Y-11997685D02*
X15392817Y-12007209D01*
X15392817Y-12007209D02*
X15402341Y-12016733D01*
X15402341Y-12016733D02*
X15411865Y-12035780D01*
X15411865Y-12035780D02*
X15411865Y-12054828D01*
X15411865Y-12054828D02*
X15402341Y-12083399D01*
X15402341Y-12083399D02*
X15288055Y-12197685D01*
X15288055Y-12197685D02*
X15411865Y-12197685D01*
X15649960Y-12197685D02*
X15649960Y-11997685D01*
X15735674Y-12197685D02*
X15735674Y-12092923D01*
X15735674Y-12092923D02*
X15726150Y-12073876D01*
X15726150Y-12073876D02*
X15707103Y-12064352D01*
X15707103Y-12064352D02*
X15678531Y-12064352D01*
X15678531Y-12064352D02*
X15659484Y-12073876D01*
X15659484Y-12073876D02*
X15649960Y-12083399D01*
X15859484Y-12197685D02*
X15840436Y-12188161D01*
X15840436Y-12188161D02*
X15830912Y-12178637D01*
X15830912Y-12178637D02*
X15821388Y-12159590D01*
X15821388Y-12159590D02*
X15821388Y-12102447D01*
X15821388Y-12102447D02*
X15830912Y-12083399D01*
X15830912Y-12083399D02*
X15840436Y-12073876D01*
X15840436Y-12073876D02*
X15859484Y-12064352D01*
X15859484Y-12064352D02*
X15888055Y-12064352D01*
X15888055Y-12064352D02*
X15907103Y-12073876D01*
X15907103Y-12073876D02*
X15916627Y-12083399D01*
X15916627Y-12083399D02*
X15926150Y-12102447D01*
X15926150Y-12102447D02*
X15926150Y-12159590D01*
X15926150Y-12159590D02*
X15916627Y-12178637D01*
X15916627Y-12178637D02*
X15907103Y-12188161D01*
X15907103Y-12188161D02*
X15888055Y-12197685D01*
X15888055Y-12197685D02*
X15859484Y-12197685D01*
X16040436Y-12197685D02*
X16021388Y-12188161D01*
X16021388Y-12188161D02*
X16011865Y-12169114D01*
X16011865Y-12169114D02*
X16011865Y-11997685D01*
X16192817Y-12188161D02*
X16173769Y-12197685D01*
X16173769Y-12197685D02*
X16135674Y-12197685D01*
X16135674Y-12197685D02*
X16116627Y-12188161D01*
X16116627Y-12188161D02*
X16107103Y-12169114D01*
X16107103Y-12169114D02*
X16107103Y-12092923D01*
X16107103Y-12092923D02*
X16116627Y-12073876D01*
X16116627Y-12073876D02*
X16135674Y-12064352D01*
X16135674Y-12064352D02*
X16173769Y-12064352D01*
X16173769Y-12064352D02*
X16192817Y-12073876D01*
X16192817Y-12073876D02*
X16202341Y-12092923D01*
X16202341Y-12092923D02*
X16202341Y-12111971D01*
X16202341Y-12111971D02*
X16107103Y-12131018D01*
X16278531Y-12188161D02*
X16297579Y-12197685D01*
X16297579Y-12197685D02*
X16335674Y-12197685D01*
X16335674Y-12197685D02*
X16354722Y-12188161D01*
X16354722Y-12188161D02*
X16364246Y-12169114D01*
X16364246Y-12169114D02*
X16364246Y-12159590D01*
X16364246Y-12159590D02*
X16354722Y-12140542D01*
X16354722Y-12140542D02*
X16335674Y-12131018D01*
X16335674Y-12131018D02*
X16307103Y-12131018D01*
X16307103Y-12131018D02*
X16288055Y-12121495D01*
X16288055Y-12121495D02*
X16278531Y-12102447D01*
X16278531Y-12102447D02*
X16278531Y-12092923D01*
X16278531Y-12092923D02*
X16288055Y-12073876D01*
X16288055Y-12073876D02*
X16307103Y-12064352D01*
X16307103Y-12064352D02*
X16335674Y-12064352D01*
X16335674Y-12064352D02*
X16354722Y-12073876D01*
X16430912Y-12273876D02*
X16440436Y-12264352D01*
X16440436Y-12264352D02*
X16459484Y-12235780D01*
X16459484Y-12235780D02*
X16469008Y-12216733D01*
X16469008Y-12216733D02*
X16478531Y-12188161D01*
X16478531Y-12188161D02*
X16488055Y-12140542D01*
X16488055Y-12140542D02*
X16488055Y-12102447D01*
X16488055Y-12102447D02*
X16478531Y-12054828D01*
X16478531Y-12054828D02*
X16469008Y-12026257D01*
X16469008Y-12026257D02*
X16459484Y-12007209D01*
X16459484Y-12007209D02*
X16440436Y-11978637D01*
X16440436Y-11978637D02*
X16430912Y-11969114D01*
D13*
X11595849Y-12310201D02*
X11595849Y-12430201D01*
X11535849Y-12370201D02*
X11655849Y-12370201D01*
D11*
X12021388Y-12461685D02*
X11907102Y-12461685D01*
X11964245Y-12461685D02*
X11964245Y-12261685D01*
X11964245Y-12261685D02*
X11945198Y-12290257D01*
X11945198Y-12290257D02*
X11926150Y-12309304D01*
X11926150Y-12309304D02*
X11907102Y-12318828D01*
X12107102Y-12442637D02*
X12116626Y-12452161D01*
X12116626Y-12452161D02*
X12107102Y-12461685D01*
X12107102Y-12461685D02*
X12097579Y-12452161D01*
X12097579Y-12452161D02*
X12107102Y-12442637D01*
X12107102Y-12442637D02*
X12107102Y-12461685D01*
X12192817Y-12280733D02*
X12202340Y-12271209D01*
X12202340Y-12271209D02*
X12221388Y-12261685D01*
X12221388Y-12261685D02*
X12269007Y-12261685D01*
X12269007Y-12261685D02*
X12288055Y-12271209D01*
X12288055Y-12271209D02*
X12297579Y-12280733D01*
X12297579Y-12280733D02*
X12307102Y-12299780D01*
X12307102Y-12299780D02*
X12307102Y-12318828D01*
X12307102Y-12318828D02*
X12297579Y-12347399D01*
X12297579Y-12347399D02*
X12183293Y-12461685D01*
X12183293Y-12461685D02*
X12307102Y-12461685D01*
X12430912Y-12261685D02*
X12449960Y-12261685D01*
X12449960Y-12261685D02*
X12469007Y-12271209D01*
X12469007Y-12271209D02*
X12478531Y-12280733D01*
X12478531Y-12280733D02*
X12488055Y-12299780D01*
X12488055Y-12299780D02*
X12497579Y-12337876D01*
X12497579Y-12337876D02*
X12497579Y-12385495D01*
X12497579Y-12385495D02*
X12488055Y-12423590D01*
X12488055Y-12423590D02*
X12478531Y-12442637D01*
X12478531Y-12442637D02*
X12469007Y-12452161D01*
X12469007Y-12452161D02*
X12449960Y-12461685D01*
X12449960Y-12461685D02*
X12430912Y-12461685D01*
X12430912Y-12461685D02*
X12411864Y-12452161D01*
X12411864Y-12452161D02*
X12402340Y-12442637D01*
X12402340Y-12442637D02*
X12392817Y-12423590D01*
X12392817Y-12423590D02*
X12383293Y-12385495D01*
X12383293Y-12385495D02*
X12383293Y-12337876D01*
X12383293Y-12337876D02*
X12392817Y-12299780D01*
X12392817Y-12299780D02*
X12402340Y-12280733D01*
X12402340Y-12280733D02*
X12411864Y-12271209D01*
X12411864Y-12271209D02*
X12430912Y-12261685D01*
X12621388Y-12261685D02*
X12640436Y-12261685D01*
X12640436Y-12261685D02*
X12659483Y-12271209D01*
X12659483Y-12271209D02*
X12669007Y-12280733D01*
X12669007Y-12280733D02*
X12678531Y-12299780D01*
X12678531Y-12299780D02*
X12688055Y-12337876D01*
X12688055Y-12337876D02*
X12688055Y-12385495D01*
X12688055Y-12385495D02*
X12678531Y-12423590D01*
X12678531Y-12423590D02*
X12669007Y-12442637D01*
X12669007Y-12442637D02*
X12659483Y-12452161D01*
X12659483Y-12452161D02*
X12640436Y-12461685D01*
X12640436Y-12461685D02*
X12621388Y-12461685D01*
X12621388Y-12461685D02*
X12602340Y-12452161D01*
X12602340Y-12452161D02*
X12592817Y-12442637D01*
X12592817Y-12442637D02*
X12583293Y-12423590D01*
X12583293Y-12423590D02*
X12573769Y-12385495D01*
X12573769Y-12385495D02*
X12573769Y-12337876D01*
X12573769Y-12337876D02*
X12583293Y-12299780D01*
X12583293Y-12299780D02*
X12592817Y-12280733D01*
X12592817Y-12280733D02*
X12602340Y-12271209D01*
X12602340Y-12271209D02*
X12621388Y-12261685D01*
X12773769Y-12461685D02*
X12773769Y-12328352D01*
X12773769Y-12347399D02*
X12783293Y-12337876D01*
X12783293Y-12337876D02*
X12802340Y-12328352D01*
X12802340Y-12328352D02*
X12830912Y-12328352D01*
X12830912Y-12328352D02*
X12849960Y-12337876D01*
X12849960Y-12337876D02*
X12859483Y-12356923D01*
X12859483Y-12356923D02*
X12859483Y-12461685D01*
X12859483Y-12356923D02*
X12869007Y-12337876D01*
X12869007Y-12337876D02*
X12888055Y-12328352D01*
X12888055Y-12328352D02*
X12916626Y-12328352D01*
X12916626Y-12328352D02*
X12935674Y-12337876D01*
X12935674Y-12337876D02*
X12945198Y-12356923D01*
X12945198Y-12356923D02*
X12945198Y-12461685D01*
X13040436Y-12461685D02*
X13040436Y-12328352D01*
X13040436Y-12347399D02*
X13049960Y-12337876D01*
X13049960Y-12337876D02*
X13069007Y-12328352D01*
X13069007Y-12328352D02*
X13097579Y-12328352D01*
X13097579Y-12328352D02*
X13116626Y-12337876D01*
X13116626Y-12337876D02*
X13126150Y-12356923D01*
X13126150Y-12356923D02*
X13126150Y-12461685D01*
X13126150Y-12356923D02*
X13135674Y-12337876D01*
X13135674Y-12337876D02*
X13154721Y-12328352D01*
X13154721Y-12328352D02*
X13183293Y-12328352D01*
X13183293Y-12328352D02*
X13202341Y-12337876D01*
X13202341Y-12337876D02*
X13211864Y-12356923D01*
X13211864Y-12356923D02*
X13211864Y-12461685D01*
X13602341Y-12252161D02*
X13430912Y-12509304D01*
X13859483Y-12261685D02*
X13878531Y-12261685D01*
X13878531Y-12261685D02*
X13897579Y-12271209D01*
X13897579Y-12271209D02*
X13907103Y-12280733D01*
X13907103Y-12280733D02*
X13916626Y-12299780D01*
X13916626Y-12299780D02*
X13926150Y-12337876D01*
X13926150Y-12337876D02*
X13926150Y-12385495D01*
X13926150Y-12385495D02*
X13916626Y-12423590D01*
X13916626Y-12423590D02*
X13907103Y-12442637D01*
X13907103Y-12442637D02*
X13897579Y-12452161D01*
X13897579Y-12452161D02*
X13878531Y-12461685D01*
X13878531Y-12461685D02*
X13859483Y-12461685D01*
X13859483Y-12461685D02*
X13840436Y-12452161D01*
X13840436Y-12452161D02*
X13830912Y-12442637D01*
X13830912Y-12442637D02*
X13821388Y-12423590D01*
X13821388Y-12423590D02*
X13811864Y-12385495D01*
X13811864Y-12385495D02*
X13811864Y-12337876D01*
X13811864Y-12337876D02*
X13821388Y-12299780D01*
X13821388Y-12299780D02*
X13830912Y-12280733D01*
X13830912Y-12280733D02*
X13840436Y-12271209D01*
X13840436Y-12271209D02*
X13859483Y-12261685D01*
X14011864Y-12442637D02*
X14021388Y-12452161D01*
X14021388Y-12452161D02*
X14011864Y-12461685D01*
X14011864Y-12461685D02*
X14002341Y-12452161D01*
X14002341Y-12452161D02*
X14011864Y-12442637D01*
X14011864Y-12442637D02*
X14011864Y-12461685D01*
X14145198Y-12261685D02*
X14164245Y-12261685D01*
X14164245Y-12261685D02*
X14183293Y-12271209D01*
X14183293Y-12271209D02*
X14192817Y-12280733D01*
X14192817Y-12280733D02*
X14202341Y-12299780D01*
X14202341Y-12299780D02*
X14211864Y-12337876D01*
X14211864Y-12337876D02*
X14211864Y-12385495D01*
X14211864Y-12385495D02*
X14202341Y-12423590D01*
X14202341Y-12423590D02*
X14192817Y-12442637D01*
X14192817Y-12442637D02*
X14183293Y-12452161D01*
X14183293Y-12452161D02*
X14164245Y-12461685D01*
X14164245Y-12461685D02*
X14145198Y-12461685D01*
X14145198Y-12461685D02*
X14126150Y-12452161D01*
X14126150Y-12452161D02*
X14116626Y-12442637D01*
X14116626Y-12442637D02*
X14107103Y-12423590D01*
X14107103Y-12423590D02*
X14097579Y-12385495D01*
X14097579Y-12385495D02*
X14097579Y-12337876D01*
X14097579Y-12337876D02*
X14107103Y-12299780D01*
X14107103Y-12299780D02*
X14116626Y-12280733D01*
X14116626Y-12280733D02*
X14126150Y-12271209D01*
X14126150Y-12271209D02*
X14145198Y-12261685D01*
X14383293Y-12328352D02*
X14383293Y-12461685D01*
X14335674Y-12252161D02*
X14288055Y-12395018D01*
X14288055Y-12395018D02*
X14411864Y-12395018D01*
X14469007Y-12261685D02*
X14602341Y-12261685D01*
X14602341Y-12261685D02*
X14516626Y-12461685D01*
X14669007Y-12280733D02*
X14678531Y-12271209D01*
X14678531Y-12271209D02*
X14697579Y-12261685D01*
X14697579Y-12261685D02*
X14745198Y-12261685D01*
X14745198Y-12261685D02*
X14764245Y-12271209D01*
X14764245Y-12271209D02*
X14773769Y-12280733D01*
X14773769Y-12280733D02*
X14783293Y-12299780D01*
X14783293Y-12299780D02*
X14783293Y-12318828D01*
X14783293Y-12318828D02*
X14773769Y-12347399D01*
X14773769Y-12347399D02*
X14659484Y-12461685D01*
X14659484Y-12461685D02*
X14783293Y-12461685D01*
X14859484Y-12261685D02*
X14859484Y-12299780D01*
X14935674Y-12261685D02*
X14935674Y-12299780D01*
X15230912Y-12537876D02*
X15221388Y-12528352D01*
X15221388Y-12528352D02*
X15202341Y-12499780D01*
X15202341Y-12499780D02*
X15192817Y-12480733D01*
X15192817Y-12480733D02*
X15183293Y-12452161D01*
X15183293Y-12452161D02*
X15173769Y-12404542D01*
X15173769Y-12404542D02*
X15173769Y-12366447D01*
X15173769Y-12366447D02*
X15183293Y-12318828D01*
X15183293Y-12318828D02*
X15192817Y-12290257D01*
X15192817Y-12290257D02*
X15202341Y-12271209D01*
X15202341Y-12271209D02*
X15221388Y-12242637D01*
X15221388Y-12242637D02*
X15230912Y-12233114D01*
X15392817Y-12328352D02*
X15392817Y-12461685D01*
X15345198Y-12252161D02*
X15297579Y-12395018D01*
X15297579Y-12395018D02*
X15421388Y-12395018D01*
X15649960Y-12461685D02*
X15649960Y-12261685D01*
X15735674Y-12461685D02*
X15735674Y-12356923D01*
X15735674Y-12356923D02*
X15726150Y-12337876D01*
X15726150Y-12337876D02*
X15707103Y-12328352D01*
X15707103Y-12328352D02*
X15678531Y-12328352D01*
X15678531Y-12328352D02*
X15659484Y-12337876D01*
X15659484Y-12337876D02*
X15649960Y-12347399D01*
X15859484Y-12461685D02*
X15840436Y-12452161D01*
X15840436Y-12452161D02*
X15830912Y-12442637D01*
X15830912Y-12442637D02*
X15821388Y-12423590D01*
X15821388Y-12423590D02*
X15821388Y-12366447D01*
X15821388Y-12366447D02*
X15830912Y-12347399D01*
X15830912Y-12347399D02*
X15840436Y-12337876D01*
X15840436Y-12337876D02*
X15859484Y-12328352D01*
X15859484Y-12328352D02*
X15888055Y-12328352D01*
X15888055Y-12328352D02*
X15907103Y-12337876D01*
X15907103Y-12337876D02*
X15916627Y-12347399D01*
X15916627Y-12347399D02*
X15926150Y-12366447D01*
X15926150Y-12366447D02*
X15926150Y-12423590D01*
X15926150Y-12423590D02*
X15916627Y-12442637D01*
X15916627Y-12442637D02*
X15907103Y-12452161D01*
X15907103Y-12452161D02*
X15888055Y-12461685D01*
X15888055Y-12461685D02*
X15859484Y-12461685D01*
X16040436Y-12461685D02*
X16021388Y-12452161D01*
X16021388Y-12452161D02*
X16011865Y-12433114D01*
X16011865Y-12433114D02*
X16011865Y-12261685D01*
X16192817Y-12452161D02*
X16173769Y-12461685D01*
X16173769Y-12461685D02*
X16135674Y-12461685D01*
X16135674Y-12461685D02*
X16116627Y-12452161D01*
X16116627Y-12452161D02*
X16107103Y-12433114D01*
X16107103Y-12433114D02*
X16107103Y-12356923D01*
X16107103Y-12356923D02*
X16116627Y-12337876D01*
X16116627Y-12337876D02*
X16135674Y-12328352D01*
X16135674Y-12328352D02*
X16173769Y-12328352D01*
X16173769Y-12328352D02*
X16192817Y-12337876D01*
X16192817Y-12337876D02*
X16202341Y-12356923D01*
X16202341Y-12356923D02*
X16202341Y-12375971D01*
X16202341Y-12375971D02*
X16107103Y-12395018D01*
X16278531Y-12452161D02*
X16297579Y-12461685D01*
X16297579Y-12461685D02*
X16335674Y-12461685D01*
X16335674Y-12461685D02*
X16354722Y-12452161D01*
X16354722Y-12452161D02*
X16364246Y-12433114D01*
X16364246Y-12433114D02*
X16364246Y-12423590D01*
X16364246Y-12423590D02*
X16354722Y-12404542D01*
X16354722Y-12404542D02*
X16335674Y-12395018D01*
X16335674Y-12395018D02*
X16307103Y-12395018D01*
X16307103Y-12395018D02*
X16288055Y-12385495D01*
X16288055Y-12385495D02*
X16278531Y-12366447D01*
X16278531Y-12366447D02*
X16278531Y-12356923D01*
X16278531Y-12356923D02*
X16288055Y-12337876D01*
X16288055Y-12337876D02*
X16307103Y-12328352D01*
X16307103Y-12328352D02*
X16335674Y-12328352D01*
X16335674Y-12328352D02*
X16354722Y-12337876D01*
X16430912Y-12537876D02*
X16440436Y-12528352D01*
X16440436Y-12528352D02*
X16459484Y-12499780D01*
X16459484Y-12499780D02*
X16469008Y-12480733D01*
X16469008Y-12480733D02*
X16478531Y-12452161D01*
X16478531Y-12452161D02*
X16488055Y-12404542D01*
X16488055Y-12404542D02*
X16488055Y-12366447D01*
X16488055Y-12366447D02*
X16478531Y-12318828D01*
X16478531Y-12318828D02*
X16469008Y-12290257D01*
X16469008Y-12290257D02*
X16459484Y-12271209D01*
X16459484Y-12271209D02*
X16440436Y-12242637D01*
X16440436Y-12242637D02*
X16430912Y-12233114D01*
M02*
